<svg width="170" height="23" viewBox="0 0 170 23" fill="none" xmlns="http://www.w3.org/2000/svg">
<path d="M122.486 10.7432L124.043 6.28442C120.454 5.34417 117.791 7.44393 117.791 7.44393L114.597 5.81641L109.293 21.2399C109.123 21.7311 109.49 22.2413 110.012 22.2413H113.999L116.677 13.8634C117.299 11.9238 119.142 10.6315 121.188 10.7011L122.484 10.7453L122.486 10.7432Z" fill="#0E151D"/>
<path d="M140.755 5.74817H134.706L128.42 12.1318L132.339 0.701172H127.462L120.397 21.237C120.228 21.7282 120.595 22.2384 121.116 22.2384H124.938L127.527 14.7227L131.614 22.2384H137.092L132.615 14.0228L140.752 5.74817H140.755Z" fill="#0E151D"/>
<path d="M21.4169 5.22069L22.9736 0.759766H7.29262L0.147762 21.2345C-0.0240202 21.7257 0.342872 22.238 0.866702 22.238H15.4788L17.0354 17.777H6.44644L7.85887 13.7272H18.4479L20.0045 9.2663H9.41551L10.8279 5.21647H21.4169V5.22069Z" fill="#0E151D"/>
<path d="M109.013 10.1643C108.392 8.92042 107.455 7.94855 106.203 7.25074C104.95 6.55293 103.493 6.20508 101.828 6.20508C100.163 6.20508 98.6809 6.55293 97.3194 7.25074C95.9557 7.94855 94.8551 8.92042 94.0131 10.1643C93.1712 11.4102 92.6792 12.8185 92.5392 14.3933C92.3992 15.9681 92.6389 17.3721 93.2602 18.6075C93.8816 19.8429 94.8126 20.8085 96.0554 21.5063C97.2982 22.2041 98.7403 22.552 100.384 22.552C102.027 22.552 103.565 22.2041 104.939 21.5063C106.311 20.8085 107.418 19.8429 108.26 18.6075C109.102 17.3721 109.592 15.9681 109.734 14.3933C109.874 12.8185 109.635 11.4102 109.013 10.1643ZM101.786 18.3967C99.665 19.0882 97.6545 17.8507 97.2982 15.6308C96.9398 13.4109 98.3713 11.0518 100.492 10.3582C102.613 9.66672 104.623 10.9042 104.98 13.1241C105.336 15.3441 103.906 17.7031 101.786 18.3967Z" fill="#0E151D"/>
<path d="M92.1146 0.759766L84.2656 15.4096V0.759766H79.1122L71.2356 15.4644V0.759766H66.0864V21.4832C66.0864 21.9007 66.4279 22.2401 66.8478 22.2401H72.7584L79.865 8.97747V22.2401H85.7989L97.2681 0.761874H92.1146V0.759766Z" fill="#0E151D"/>
<path d="M31.9866 6.30664L26.093 17.44V6.30664H21.6924V21.4814C21.6924 21.8988 22.0338 22.2382 22.4537 22.2382H28.165L36.6714 6.30664H31.9866Z" fill="#0E151D"/>
<path d="M45.6149 17.5345C45.1716 17.9161 44.6627 18.2133 44.1049 18.3967C42.1283 19.0418 40.2493 18.0109 39.7128 16.0714H51.5191C51.6569 16.0714 51.7821 15.9786 51.8139 15.8437C51.9305 15.3778 52.0111 14.8929 52.0556 14.3933C52.1956 12.8206 51.956 11.4102 51.3346 10.1643C50.7132 8.92042 49.7758 7.94855 48.5246 7.25074C47.2712 6.55293 45.8142 6.20508 44.1494 6.20508C42.4846 6.20508 41.0022 6.55293 39.6407 7.25074C38.277 7.94855 37.1763 8.92042 36.3344 10.1643C35.4925 11.4102 35.0004 12.8185 34.8605 14.3933C34.7205 15.9681 34.9601 17.3721 35.5815 18.6075C36.2029 19.8429 37.1339 20.8085 38.3767 21.5063C39.6195 22.2041 41.0616 22.552 42.7052 22.552C44.3488 22.552 45.8863 22.2041 47.2606 21.5063C48.2616 20.9982 49.1205 20.3468 49.8394 19.552L45.9521 17.5007C45.8418 17.4438 45.7082 17.4544 45.6149 17.5366V17.5345ZM42.8091 10.3582C44.8556 9.68991 46.7961 10.8178 47.2542 12.8901C47.2945 13.0757 47.1482 13.2506 46.9573 13.2506C45.4707 13.2506 39.8782 13.2506 39.8782 13.2506C40.3829 11.9204 41.4561 10.7988 42.8091 10.3561V10.3582Z" fill="#0E151D"/>
<path d="M163.052 7.44393L159.859 5.81641L154.555 21.2399C154.385 21.7311 154.752 22.2413 155.274 22.2413H159.261L161.892 14.5316C162.66 12.2801 164.781 10.7601 167.173 10.7475H167.748L169.305 6.28442C165.716 5.34417 163.055 7.44393 163.055 7.44393H163.052Z" fill="#0E151D"/>
<path d="M148.737 17.5345C148.294 17.9161 147.785 18.2133 147.227 18.3967C145.25 19.0418 143.371 18.0109 142.835 16.0714H154.641C154.779 16.0714 154.904 15.9786 154.936 15.8437C155.053 15.3778 155.133 14.8929 155.178 14.3933C155.318 12.8206 155.078 11.4102 154.457 10.1643C153.835 8.92042 152.898 7.94855 151.647 7.25074C150.393 6.55293 148.936 6.20508 147.271 6.20508C145.607 6.20508 144.124 6.55293 142.763 7.25074C141.399 7.94855 140.298 8.92042 139.456 10.1643C138.615 11.4102 138.123 12.8185 137.983 14.3933C137.843 15.9681 138.082 17.3721 138.704 18.6075C139.325 19.8429 140.256 20.8085 141.499 21.5063C142.742 22.2041 144.184 22.552 145.827 22.552C147.471 22.552 149.008 22.2041 150.383 21.5063C151.384 20.9982 152.243 20.3468 152.962 19.552L149.074 17.5007C148.966 17.4438 148.83 17.4544 148.737 17.5366V17.5345ZM145.931 10.3582C147.978 9.68991 149.918 10.8178 150.374 12.8901C150.414 13.0757 150.268 13.2527 150.077 13.2527C148.588 13.2527 143 13.2527 143 13.2527C143.505 11.9225 144.578 10.8009 145.931 10.3582Z" fill="#0E151D"/>
<path d="M59.928 7.44393L56.7341 5.81641L51.4301 21.2399C51.2604 21.7311 51.6273 22.2413 52.149 22.2413H56.1361L58.7679 14.5316C59.5356 12.2801 61.6564 10.7601 64.0486 10.7475H64.6743V6.05463C61.8706 5.91549 59.928 7.44603 59.928 7.44603V7.44393Z" fill="#0E151D"/>
</svg>
