<svg width="197" height="40" viewBox="0 0 197 40" fill="none" xmlns="http://www.w3.org/2000/svg">
<g clip-path="url(#clip0_635_3578)">
<path d="M104.753 0L102.297 4.52489V0H91.8675L89.4111 4.52489V0H14.1389L0 40H85.869L88.3254 35.4731V40H182.528L196.667 0H104.753Z" fill="#FF0D40"/>
<path d="M134.886 19.2608L136.424 14.9107C132.878 13.9934 130.245 16.0419 130.245 16.0419L127.089 14.4541L121.847 29.5014C121.679 29.9806 122.042 30.4784 122.558 30.4784H126.498L129.145 22.3048C129.759 20.4126 131.58 19.1518 133.603 19.2196L134.884 19.2628L134.886 19.2608Z" fill="#F8F8F8"/>
<path d="M152.94 14.3887H146.962L140.75 20.6166L144.623 9.46484H139.803L132.821 29.4998C132.654 29.979 133.016 30.4768 133.532 30.4768H137.309L139.868 23.1444L143.906 30.4768H149.32L144.896 22.4616L152.938 14.3887H152.94Z" fill="#F8F8F8"/>
<path d="M35.0015 13.8746L36.5399 9.52246H21.0428L13.9817 29.4978C13.812 29.977 14.1746 30.4768 14.6922 30.4768H29.133L30.6714 26.1247H20.2066L21.6024 22.1736H32.0673L33.6056 17.8215H23.1408L24.5367 13.8705H35.0015V13.8746Z" fill="#F8F8F8"/>
<path d="M121.571 18.6976C120.957 17.4841 120.03 16.5359 118.794 15.8551C117.555 15.1743 116.115 14.835 114.47 14.835C112.824 14.835 111.359 15.1743 110.014 15.8551C108.666 16.5359 107.578 17.4841 106.746 18.6976C105.914 19.9131 105.428 21.287 105.29 22.8234C105.151 24.3598 105.388 25.7297 106.002 26.9349C106.616 28.1402 107.537 29.0822 108.765 29.763C109.993 30.4438 111.418 30.7831 113.042 30.7831C114.667 30.7831 116.186 30.4438 117.544 29.763C118.9 29.0822 119.995 28.1402 120.827 26.9349C121.659 25.7297 122.143 24.3598 122.283 22.8234C122.422 21.287 122.185 19.9131 121.571 18.6976ZM114.428 26.7292C112.332 27.4039 110.345 26.1965 109.993 24.0308C109.639 21.865 111.053 19.5635 113.149 18.8868C115.245 18.2122 117.232 19.4195 117.584 21.5853C117.936 23.751 116.524 26.0526 114.428 26.7292Z" fill="#F8F8F8"/>
<path d="M104.87 9.52246L97.1135 23.8149V9.52246H92.0205L84.2363 23.8684V9.52246H79.1475V29.7405C79.1475 30.1477 79.4849 30.4789 79.8999 30.4789H85.7412L92.7645 17.5397V30.4789H98.6288L109.963 9.52452H104.87V9.52246Z" fill="#F8F8F8"/>
<path d="M45.4474 14.9336L39.6229 25.7954V14.9336H35.2739V29.7382C35.2739 30.1454 35.6114 30.4766 36.0264 30.4766H41.6706L50.0773 14.9336H45.4474Z" fill="#F8F8F8"/>
<path d="M58.9156 25.888C58.4775 26.2603 57.9745 26.5503 57.4233 26.7292C55.4699 27.3586 53.6129 26.3529 53.0827 24.4606H64.7506C64.8868 24.4606 65.0105 24.3701 65.0419 24.2385C65.1572 23.784 65.2368 23.3109 65.2808 22.8234C65.4192 21.2891 65.1823 19.9131 64.5682 18.6976C63.9541 17.4841 63.0277 16.5359 61.7912 15.8551C60.5525 15.1743 59.1126 14.835 57.4673 14.835C55.822 14.835 54.357 15.1743 53.0114 15.8551C51.6638 16.5359 50.576 17.4841 49.7439 18.6976C48.9118 19.9131 48.4256 21.287 48.2873 22.8234C48.1489 24.3598 48.3858 25.7297 48.9999 26.9349C49.614 28.1402 50.5341 29.0822 51.7623 29.763C52.9905 30.4438 54.4157 30.7831 56.04 30.7831C57.6643 30.7831 59.1838 30.4438 60.542 29.763C61.5313 29.2673 62.3801 28.6318 63.0906 27.8564L59.2488 25.8551C59.1398 25.7996 59.0078 25.8099 58.9156 25.8901V25.888ZM56.1427 18.8868C58.1652 18.2348 60.083 19.3352 60.5357 21.357C60.5755 21.538 60.4309 21.7087 60.2423 21.7087C58.7731 21.7087 53.2462 21.7087 53.2462 21.7087C53.745 20.4109 54.8055 19.3167 56.1427 18.8847V18.8868Z" fill="#F8F8F8"/>
<path d="M174.976 16.0419L171.82 14.4541L166.578 29.5014C166.41 29.9806 166.773 30.4784 167.289 30.4784H171.229L173.83 22.9568C174.589 20.7601 176.684 19.2772 179.049 19.2649H179.617L181.155 14.9107C177.609 13.9934 174.978 16.0419 174.978 16.0419H174.976Z" fill="#F8F8F8"/>
<path d="M160.829 25.888C160.391 26.2603 159.888 26.5503 159.336 26.7292C157.383 27.3586 155.526 26.3529 154.996 24.4606H166.664C166.8 24.4606 166.924 24.3701 166.955 24.2385C167.07 23.784 167.15 23.3109 167.194 22.8234C167.332 21.2891 167.095 19.9131 166.481 18.6976C165.867 17.4841 164.941 16.5359 163.704 15.8551C162.466 15.1743 161.026 14.835 159.38 14.835C157.735 14.835 156.27 15.1743 154.925 15.8551C153.577 16.5359 152.489 17.4841 151.657 18.6976C150.825 19.9131 150.339 21.287 150.2 22.8234C150.062 24.3598 150.299 25.7297 150.913 26.9349C151.527 28.1402 152.447 29.0822 153.675 29.763C154.904 30.4438 156.329 30.7831 157.953 30.7831C159.577 30.7831 161.097 30.4438 162.455 29.763C163.444 29.2673 164.293 28.6318 165.004 27.8564L161.162 25.8551C161.055 25.7996 160.921 25.8099 160.829 25.8901V25.888ZM158.056 18.8868C160.078 18.2348 161.996 19.3352 162.447 21.357C162.487 21.538 162.342 21.7107 162.153 21.7107C160.682 21.7107 155.159 21.7107 155.159 21.7107C155.658 20.4129 156.719 19.3187 158.056 18.8868Z" fill="#F8F8F8"/>
<path d="M73.0608 16.0419L69.9043 14.4541L64.6625 29.5014C64.4948 29.9806 64.8574 30.4784 65.373 30.4784H69.3133L71.9143 22.9568C72.673 20.7601 74.7689 19.2772 77.1331 19.2649H77.7514V14.6865C74.9806 14.5508 73.0608 16.044 73.0608 16.044V16.0419Z" fill="#F8F8F8"/>
</g>
<defs>
<clipPath id="clip0_635_3578">
<rect width="196.667" height="40" fill="white"/>
</clipPath>
</defs>
</svg>
