<svg xmlns="http://www.w3.org/2000/svg" id="Layer_2" data-name="Layer 2" viewBox="0 0 125 22.1"><defs><style>      .cls-1 {        fill: #fff;        stroke-width: 0px;      }    </style></defs><g id="LANDING-P"><g id="Leaders_title"><g><path class="cls-1" d="m0,21.78V3.95h3.31v15.07h8.33v2.75H0Z"></path><path class="cls-1" d="m46.46,21.78V3.95h7.02c5.92,0,9.88,3.69,9.88,8.9s-3.96,8.93-9.85,8.93h-7.05Zm13.51-8.93c0-3.42-2.27-6.15-6.46-6.15h-3.74v12.32h3.71c4.11,0,6.48-2.78,6.48-6.17Z"></path><polygon class="cls-1" points="26.56 6.7 26.56 3.95 13.62 3.95 13.62 21.78 26.56 21.78 26.56 19.02 16.93 19.02 16.93 14.23 26.36 14.23 26.36 11.47 16.93 11.47 16.93 6.7 26.56 6.7"></polygon><polygon class="cls-1" points="79.23 6.7 79.23 3.95 66.28 3.95 66.28 21.78 79.23 21.78 79.23 19.02 69.6 19.02 69.6 14.23 79.03 14.23 79.03 11.47 69.6 11.47 69.6 6.7 79.23 6.7"></polygon><path class="cls-1" d="m88.08,12.33l2.7.04c1.87,0,3.23-1.12,3.23-2.86s-1.36-2.81-3.23-2.81h-4.56v15.07h-3.31V3.95h8.3c3.74,0,6.2,2.27,6.2,5.59s-2.21,4.89-4.5,5.24l4.64,7h-3.85l-5.62-9.45Z"></path><path class="cls-1" d="m99.5,19.26l1.87-2.43c1.27,1.31,3.34,2.49,5.98,2.49s3.77-1.26,3.77-2.46c0-3.74-10.99-1.42-10.99-7.96,0-2.97,2.72-5.24,6.88-5.24,2.92,0,5.32.91,7.05,2.51l-1.87,2.33c-1.5-1.42-3.51-2.06-5.49-2.06s-3.17.91-3.17,2.22c0,3.34,10.99,1.28,10.99,7.91,0,2.97-2.24,5.53-7.31,5.53-3.48,0-6-1.18-7.7-2.83Z"></path><polygon class="cls-1" points="38.05 7.51 36.29 3.74 34.53 7.51 27.9 21.74 31.41 21.74 36.29 11.29 41.16 21.74 44.68 21.74 38.05 7.51"></polygon></g><path class="cls-1" d="m121.06,0c2.08,0,3.94,1.59,3.94,3.94s-1.86,3.94-3.94,3.94-3.94-1.59-3.94-3.94,1.86-3.94,3.94-3.94Zm0,.82c-1.71,0-3.06,1.33-3.06,3.12s1.34,3.12,3.06,3.12,3.06-1.33,3.06-3.12-1.37-3.12-3.06-3.12Zm2.05,3.8c-.18,1.05-.97,1.67-1.9,1.67-1.33,0-2.22-1.04-2.22-2.37s.83-2.37,2.18-2.37c.97,0,1.75.58,1.9,1.63h-.85c-.1-.48-.53-.81-1.07-.81-.83,0-1.28.66-1.28,1.55s.5,1.55,1.32,1.55c.54,0,.96-.3,1.03-.85h.88Z"></path></g></g></svg>