<svg width="148" height="69" viewBox="0 0 148 69" fill="none" xmlns="http://www.w3.org/2000/svg">
<path d="M23.9341 15.8369H23.262C21.5072 15.8369 20.4171 16.9194 20.4171 18.6615V32.676C20.4171 39.3205 18.3811 42.0307 13.3895 42.0307C8.39798 42.0307 6.36193 39.3081 6.36193 32.6341V18.6615C6.36193 16.9194 5.2718 15.8369 3.5172 15.8369H2.84482C1.09013 15.8369 0 16.9194 0 18.6615V32.676C0 42.7978 4.505 47.9299 13.3895 47.9299C22.2741 47.9299 26.7788 42.7978 26.7788 32.676V18.6615C26.7788 16.9194 25.6887 15.8369 23.9341 15.8369Z" fill="black"/>
<path d="M34.8187 24.3418H34.2618C32.4636 24.3418 31.3467 25.4663 31.3467 27.276V44.9964C31.3467 46.8061 32.4636 47.9306 34.2618 47.9306H34.8187C36.6167 47.9306 37.7336 46.8061 37.7336 44.9964V27.276C37.7336 25.4663 36.6167 24.3418 34.8187 24.3418Z" fill="black"/>
<path d="M42.5323 13.3715C38.4682 12.7204 35.2611 9.52142 34.6084 5.46755C34.5961 5.39103 34.4967 5.39103 34.4844 5.46755C33.8317 9.52142 30.6246 12.7204 26.5605 13.3715C26.4837 13.3838 26.4837 13.483 26.5605 13.4953C30.6246 14.1463 33.8317 17.3454 34.4844 21.3993C34.4967 21.4758 34.5961 21.4758 34.6084 21.3993C35.2611 17.3454 38.4682 14.1463 42.5323 13.4953C42.6091 13.483 42.6091 13.3838 42.5323 13.3715ZM38.5394 13.4644C36.5073 13.7899 34.9038 15.3894 34.5774 17.4164C34.5713 17.4546 34.5216 17.4546 34.5154 17.4164C34.189 15.3894 32.5855 13.7899 30.5534 13.4644C30.5151 13.4582 30.5151 13.4086 30.5534 13.4025C32.5855 13.0769 34.189 11.4774 34.5154 9.45048C34.5216 9.41222 34.5713 9.41222 34.5774 9.45048C34.9038 11.4774 36.5073 13.0769 38.5394 13.4025C38.5777 13.4086 38.5777 13.4582 38.5394 13.4644Z" fill="black"/>
<path d="M44.9669 7.04257C42.9348 7.36807 41.3313 8.96762 41.0049 10.9946C40.9987 11.0328 40.949 11.0328 40.9429 10.9946C40.6165 8.96762 39.013 7.36807 36.9809 7.04257C36.9426 7.03644 36.9426 6.98683 36.9809 6.98069C39.013 6.65512 40.6165 5.05563 40.9429 3.02869C40.949 2.99044 40.9987 2.99044 41.0049 3.02869C41.3313 5.05563 42.9348 6.65512 44.9669 6.98069C45.0052 6.98683 45.0052 7.03644 44.9669 7.04257Z" fill="black"/>
<path d="M51.6984 15.8369H45.4992C43.7258 15.8369 42.624 16.931 42.624 18.6917V45.0751C42.624 46.8359 43.7258 47.9299 45.4992 47.9299H46.1788C47.9522 47.9299 49.0539 46.8359 49.0539 45.0751V38.8299H51.7408C62.4987 38.8299 66.8868 35.4992 66.8868 27.3334C66.8868 19.1676 62.4864 15.8369 51.6984 15.8369ZM60.3721 27.2492C60.3721 31.45 58.3654 32.8676 52.42 32.8676H49.0539V21.6727H52.42C58.3654 21.6727 60.3721 23.0797 60.3721 27.2492Z" fill="black"/>
<path d="M90.7649 21.775H90.2553C88.4819 21.775 87.3803 22.8691 87.3803 24.6298V24.6335C85.5588 22.5394 82.7378 21.3115 79.5132 21.3115C76.2279 21.3115 73.2573 22.5099 71.1481 24.6864C68.8509 27.0565 67.6367 30.4773 67.6367 34.5786C67.6367 38.6978 68.8581 42.1383 71.1687 44.5281C73.2898 46.7217 76.2684 47.9299 79.5556 47.9299C82.719 47.9299 85.5611 46.6867 87.3825 44.6229C87.3826 44.6251 87.3827 45.2178 87.3827 45.22C87.4418 46.8958 88.531 47.9299 90.2553 47.9299H90.7649C92.5384 47.9299 93.6402 46.8362 93.6402 45.0755V24.6298C93.6402 22.8691 92.5384 21.775 90.7649 21.775ZM87.5076 34.5786C87.5076 39.3962 84.9161 42.3892 80.7445 42.3892C76.5206 42.3892 73.8966 39.3962 73.8966 34.5786C73.8966 29.7866 76.488 26.81 80.6596 26.81C84.8195 26.81 87.5076 29.8595 87.5076 34.5786Z" fill="black"/>
<path d="M127.781 21.3369C124.452 21.3369 122.076 22.6535 120.589 24.3128V18.6935C120.589 16.9317 119.487 15.8369 117.712 15.8369H117.202C115.428 15.8369 114.325 16.9317 114.325 18.6935V45.0734C114.325 46.8352 115.428 47.9299 117.202 47.9299H117.712C119.487 47.9299 120.589 46.8352 120.589 45.0734V34.4856C120.589 27.7073 123.845 26.9234 126.294 26.9234C130.407 26.9234 132.084 28.9557 132.084 33.9375V45.0734C132.084 46.8352 133.187 47.9299 134.961 47.9299H135.471C137.246 47.9299 138.348 46.8352 138.348 45.0734V33.5576C138.348 25.3342 134.892 21.3369 127.781 21.3369Z" fill="black"/>
<path d="M112.524 44.7012C112.436 43.8521 111.924 42.639 109.486 42.639C106.604 42.639 105.232 41.7471 105.232 36.6791V26.9234H109.528C111.3 26.9234 112.401 25.9258 112.401 24.3201C112.401 22.7404 111.3 21.7588 109.528 21.7588H105.237V18.6935C105.237 16.9317 104.128 15.8369 102.343 15.8369H101.83C100.045 15.8369 98.9357 16.9317 98.9357 18.6935V21.7588H97.948C96.3857 21.7588 95.415 22.7404 95.415 24.3201C95.415 25.9258 96.5158 26.9234 98.2875 26.9234H98.9357V37.2276C98.9357 44.7293 101.875 47.9299 108.765 47.9299C108.776 47.9299 108.787 47.9296 108.798 47.9293C109.199 47.9289 109.628 47.9227 110.065 47.884C110.934 47.8023 111.591 47.4983 112.018 46.9793C112.443 46.463 112.613 45.5558 112.524 44.7012Z" fill="black"/>
</svg>
