<svg width="98" height="32" viewBox="0 0 98 32" fill="none" xmlns="http://www.w3.org/2000/svg">
<path d="M16.8185 9.05078H16.3463C15.1131 9.05078 14.3471 9.81396 14.3471 11.0422V20.9224C14.3471 25.6067 12.9164 27.5174 9.40886 27.5174C5.90128 27.5174 4.47054 25.5981 4.47054 20.8929V11.0422C4.47054 9.81396 3.70451 9.05078 2.47154 9.05078H1.99907C0.766037 9.05078 0 9.81396 0 11.0422V20.9224C0 28.0583 3.16568 31.6764 9.40886 31.6764C15.652 31.6764 18.8176 28.0583 18.8176 20.9224V11.0422C18.8176 9.81396 18.0515 9.05078 16.8185 9.05078Z" fill="black"/>
<path d="M24.4671 15.0459H24.0758C22.8122 15.0459 22.0273 15.8387 22.0273 17.1145V29.6074C22.0273 30.8833 22.8122 31.6761 24.0758 31.6761H24.4671C25.7306 31.6761 26.5155 30.8833 26.5155 29.6074V17.1145C26.5155 15.8387 25.7306 15.0459 24.4671 15.0459Z" fill="black"/>
<path d="M29.887 7.31201C27.0311 6.85295 24.7775 4.59767 24.3188 1.73968C24.3102 1.68573 24.2403 1.68573 24.2316 1.73968C23.773 4.59767 21.5194 6.85295 18.6635 7.31201C18.6096 7.32065 18.6096 7.39061 18.6635 7.39926C21.5194 7.85821 23.773 10.1136 24.2316 12.9716C24.2403 13.0255 24.3102 13.0255 24.3188 12.9716C24.7775 10.1136 27.0311 7.85821 29.887 7.39926C29.9409 7.39061 29.9409 7.32065 29.887 7.31201ZM27.0811 7.37745C25.6531 7.60693 24.5263 8.73461 24.297 10.1636C24.2927 10.1906 24.2578 10.1906 24.2534 10.1636C24.0241 8.73461 22.8973 7.60693 21.4694 7.37745C21.4424 7.37312 21.4424 7.33815 21.4694 7.33382C22.8973 7.10429 24.0241 5.97665 24.2534 4.54765C24.2578 4.52068 24.2927 4.52068 24.297 4.54765C24.5263 5.97665 25.6531 7.10429 27.0811 7.33382C27.108 7.33815 27.108 7.37312 27.0811 7.37745Z" fill="black"/>
<path d="M31.5978 2.85002C30.1698 3.0795 29.043 4.20719 28.8137 5.63619C28.8094 5.66316 28.7744 5.66316 28.7701 5.63619C28.5408 4.20719 27.414 3.0795 25.986 2.85002C25.9591 2.8457 25.9591 2.81072 25.986 2.8064C27.414 2.57687 28.5408 1.44922 28.7701 0.020229C28.7744 -0.00674301 28.8094 -0.00674301 28.8137 0.020229C29.043 1.44922 30.1698 2.57687 31.5978 2.8064C31.6247 2.81072 31.6247 2.8457 31.5978 2.85002Z" fill="black"/>
<path d="M36.3287 9.05078H31.9725C30.7264 9.05078 29.9521 9.82209 29.9521 11.0634V29.6638C29.9521 30.9051 30.7264 31.6764 31.9725 31.6764H32.4501C33.6962 31.6764 34.4705 30.9051 34.4705 29.6638V25.2609H36.3586C43.9181 25.2609 47.0017 22.9127 47.0017 17.1558C47.0017 11.3989 43.9095 9.05078 36.3287 9.05078ZM42.4238 17.0964C42.4238 20.0581 41.0137 21.0574 36.8358 21.0574H34.4705V13.165H36.8358C41.0137 13.165 42.4238 14.1569 42.4238 17.0964Z" fill="black"/>
<path d="M63.7806 13.2369H63.4224C62.1763 13.2369 61.4022 14.0083 61.4022 15.2496V15.2521C60.1222 13.7758 58.1399 12.9102 55.874 12.9102C53.5654 12.9102 51.4779 13.755 49.9958 15.2894C48.3815 16.9604 47.5283 19.372 47.5283 22.2635C47.5283 25.1675 48.3866 27.5931 50.0103 29.2779C51.5007 30.8244 53.5938 31.6762 55.9038 31.6762C58.1267 31.6762 60.1239 30.7997 61.4037 29.3447C61.4038 29.3463 61.4038 29.7641 61.4039 29.7657C61.4454 30.9472 62.2108 31.6762 63.4224 31.6762H63.7806C65.0268 31.6762 65.801 30.9051 65.801 29.6638V15.2496C65.801 14.0083 65.0268 13.2369 63.7806 13.2369ZM61.4916 22.2635C61.4916 25.6599 59.6706 27.7699 56.7392 27.7699C53.771 27.7699 51.9272 25.6599 51.9272 22.2635C51.9272 18.8851 53.7482 16.7866 56.6796 16.7866C59.6027 16.7866 61.4916 18.9365 61.4916 22.2635Z" fill="black"/>
<path d="M89.7925 12.9283C87.4528 12.9283 85.7836 13.8565 84.7385 15.0263V11.0647C84.7385 9.82259 83.9638 9.05078 82.7168 9.05078H82.3586C81.1116 9.05078 80.3369 9.82259 80.3369 11.0647V29.6625C80.3369 30.9046 81.1116 31.6764 82.3586 31.6764H82.7168C83.9638 31.6764 84.7385 30.9046 84.7385 29.6625V22.1982C84.7385 17.4194 87.0264 16.8668 88.7475 16.8668C91.6375 16.8668 92.8162 18.2995 92.8162 21.8118V29.6625C92.8162 30.9046 93.5909 31.6764 94.8379 31.6764H95.1963C96.4432 31.6764 97.2178 30.9046 97.2178 29.6625V21.5439C97.2178 15.7464 94.789 12.9283 89.7925 12.9283Z" fill="black"/>
<path d="M79.071 29.4002C79.0092 28.8015 78.6494 27.9463 76.9366 27.9463C74.9112 27.9463 73.9473 27.3176 73.9473 23.7446V16.8668H76.9663C78.2113 16.8668 78.9848 16.1634 78.9848 15.0315C78.9848 13.9177 78.2113 13.2257 76.9663 13.2257H73.9509V11.0647C73.9509 9.82259 73.1716 9.05078 71.9171 9.05078H71.5567C70.3022 9.05078 69.5228 9.82259 69.5228 11.0647V13.2257H68.8288C67.7309 13.2257 67.0488 13.9177 67.0488 15.0315C67.0488 16.1634 67.8223 16.8668 69.0673 16.8668H69.5228V24.1313C69.5228 29.42 71.5885 31.6764 76.4298 31.6764C76.4377 31.6764 76.4456 31.6762 76.4534 31.676C76.7349 31.6757 77.0364 31.6713 77.3436 31.6441C77.9538 31.5864 78.4154 31.3721 78.7156 31.0063C79.0146 30.6423 79.1342 30.0027 79.071 29.4002Z" fill="black"/>
</svg>
